<svg id="Calque_1" data-name="Calque 1" xmlns="http://www.w3.org/2000/svg" viewBox="0 0 500 500">
    <defs>
        <style>.cls-1{fill:#ff9100;}</style>
    </defs>
    <g id="Groupe_691" data-name="Groupe 691">
        <path id="Tracé_13" data-name="Tracé 13" class="cls-1"
              d="M23.18,359.32h0v31.26a7.8,7.8,0,0,0,7.8,7.8h0v31.25a7.79,7.79,0,0,0,7.79,7.8h.5a70.26,70.26,0,0,0,139.66,0h.48a7.8,7.8,0,0,0,7.81-7.78v-4.23a46.59,46.59,0,0,0,31.22,12H351.71a70.27,70.27,0,0,0,139.69-.05h.33a7.79,7.79,0,0,0,7.81-7.79h0a85.89,85.89,0,0,0-78.81-85.47L399.39,187.52h14.32a7.81,7.81,0,0,0,7.81-7.81h15.62A7.82,7.82,0,0,0,445,171.9V109.4a7.82,7.82,0,0,0-7.8-7.82H421.52a7.81,7.81,0,0,0-7.81-7.81H351.17a46.82,46.82,0,0,0-40.36,23.42H296.54a23.44,23.44,0,0,0,0,46.87h14.25A46.81,46.81,0,0,0,344.4,187l22.54,165.38a31.24,31.24,0,0,1-31.16,30.42H265.34V281.19h0V70.29a7.82,7.82,0,0,0-7.8-7.82H218.45V39.05A39.1,39.1,0,0,0,179.39,0a38.54,38.54,0,0,1-31.24,0A39.1,39.1,0,0,0,109.1,39.05V62.47H62.27a7.82,7.82,0,0,0-7.81,7.82V274.17a39.17,39.17,0,0,0-31.28,38.28,23.43,23.43,0,0,0,0,46.86m148.44,62.51h-125V398.38h125ZM131.1,437.43a23.26,23.26,0,0,1-43.95,0Zm-22,46.88a54.71,54.71,0,0,1-54-46.88H70.86a39,39,0,0,0,76.5,0h15.79a54.67,54.67,0,0,1-54,46.88m312.45,0a54.72,54.72,0,0,1-54.06-46.93H383.3a39,39,0,0,0,76.52,0h15.82a54.66,54.66,0,0,1-54,47m-22-46.94h44a23.28,23.28,0,0,1-44,0m83.93-15.65H385.13a85.9,85.9,0,0,0,36.18-62,70.3,70.3,0,0,1,62.2,62M429.38,164h-7.81V117.13h7.81Zm-70.32-31.25a7.81,7.81,0,1,1,0,15.62H318.57a21.79,21.79,0,0,0,0-15.62Zm-70.27,7.82a7.81,7.81,0,1,1,7.81,7.8,7.81,7.81,0,0,1-7.81-7.8M330.62,164h28.44a23.44,23.44,0,0,0,.82-46.87H330.65a31.28,31.28,0,0,1,20.67-7.81h54.61v62.52H351.3A31.29,31.29,0,0,1,330.59,164m52,187.5a6.69,6.69,0,0,0-.2-1v-.08l-22.21-163h23.41l22.3,163.81c0,.08-.05.14-.05.23s.11.4.13.6a70.33,70.33,0,0,1-69.49,69.66l-118.08,0a31.19,31.19,0,0,1-30.13-23.43H335.77a46.91,46.91,0,0,0,46.86-46.86M70.06,257.77H249.7v15.58H70.06Zm179.63-15.66H234.05V78.1h15.64ZM202.77,39.05V62.47H187.16V39.05a38.77,38.77,0,0,0-8-23.42h.18a23.44,23.44,0,0,1,23.43,23.43M155.91,62.48V39.06a10.43,10.43,0,1,1,15.62,0V62.48ZM124.67,39.06A23.46,23.46,0,0,1,148.1,15.63h.18a38.74,38.74,0,0,0-8,23.42V62.47H124.67ZM70,78.11H218.4v164H70ZM62.19,289H249.68v93.79H38.82V312.42a23.5,23.5,0,0,1,23.45-23.36M23.21,328.12h0v15.62h0a7.81,7.81,0,0,1,0-15.62h0"/>
        <path id="Tracé_14" data-name="Tracé 14" class="cls-1"
              d="M140.31,84.9a7.81,7.81,0,0,0-7.8,7.81h0v7.8h-3.92v-7.8a7.82,7.82,0,0,0-15.63,0v7.8h-3.9v-7.8a7.82,7.82,0,0,0-15.63,0V124A15.62,15.62,0,0,0,109,139.58H113v54.67a7.81,7.81,0,0,0,15.62,0V139.58h3.9A15.64,15.64,0,0,0,148.12,124h0V92.71a7.8,7.8,0,0,0-7.79-7.81h0m-7.8,31.24V124H109.06v-7.82h23.45Z"/>
        <path id="Tracé_15" data-name="Tracé 15" class="cls-1"
              d="M163.81,84.87h-.1a7.82,7.82,0,0,0-7.81,7.82c0,.07,0,.15,0,.23V194.24a7.81,7.81,0,0,0,15.62,0V163h15.62a7.81,7.81,0,0,0,7.81-7.81h0v-39a31.32,31.32,0,0,0-31.19-31.28m7.76,17.81a15.61,15.61,0,0,1,7.81,13.47v31.21h-7.81Z"/>
    </g>
</svg>
