<svg id="Calque_1" data-name="Calque 1" xmlns="http://www.w3.org/2000/svg" viewBox="0 0 500 500">
    <defs>
        <style>.cls-1{fill:#d1d1d1;}</style>
    </defs>
    <path id="Tracé_1" data-name="Tracé 1" class="cls-1"
          d="M490.45.48A9.77,9.77,0,0,0,483.91,3c-.12.1-.25.21-.37.33L437.77,49.14,392,3.35h0a9.66,9.66,0,0,0-13.79,0L347.61,33.87,317.05,3.31a9.73,9.73,0,0,0-13.77,0l0,0L272.69,33.87,242.11,3.31a9.73,9.73,0,0,0-13.77,0l0,0L197.75,33.87,167.17,3.31a9.73,9.73,0,0,0-13.76,0l0,0L122.81,33.87,92.24,3.31a9.73,9.73,0,0,0-13.76,0l0,0L47.88,33.87,17.32,3.31A9.75,9.75,0,0,0,.67,10.21v480A9.75,9.75,0,0,0,10.4,500H490.45a9.76,9.76,0,0,0,9.76-9.76v-480A9.76,9.76,0,0,0,490.46.48h0m-52.68,72.2a9.77,9.77,0,0,0,6.9-2.87l36-36V466.7l-33.17-33.17V207A9.76,9.76,0,0,0,428,207V433.53L394.84,466.7V33.78l36,36a9.68,9.68,0,0,0,6.89,2.87m0,378.7,29.12,29.14H408.67ZM20.16,33.77,41,54.61a9.77,9.77,0,0,0,13.81,0L85.33,24l30.56,30.57a9.77,9.77,0,0,0,13.79,0L160.25,24l30.57,30.57a9.76,9.76,0,0,0,13.8,0L235.19,24l30.57,30.57a9.75,9.75,0,0,0,13.79,0L310.13,24l30.55,30.57a9.78,9.78,0,0,0,13.8,0l20.85-20.84V480.49H20.18Z"/>
    <path id="Tracé_2" data-name="Tracé 2" class="cls-1"
          d="M127.49,170.62h31.23a9.76,9.76,0,0,0,0-19.51H127.49a21.47,21.47,0,0,1,0-42.93H268a21.47,21.47,0,0,1,0,42.93H236.77a9.76,9.76,0,1,0,0,19.51H268a41,41,0,1,0,.08-81.94H127.49a41,41,0,0,0,0,81.94"/>
    <path id="Tracé_3" data-name="Tracé 3" class="cls-1"
          d="M338,241.8a9.76,9.76,0,1,0,0-19.51H316.58a19.53,19.53,0,0,0-19.51,19.51v50.73a19.53,19.53,0,0,0,19.51,19.52h21.47a9.76,9.76,0,0,0,0-19.52H316.58V276.92h21.47a9.76,9.76,0,0,0,.05-19.51H316.58V241.8Z"/>
    <path id="Tracé_4" data-name="Tracé 4" class="cls-1"
          d="M59.15,241.8H72.81v60.49a9.76,9.76,0,1,0,19.51,0h0V241.8H106a9.76,9.76,0,0,0,0-19.51H59.14a9.76,9.76,0,0,0,0,19.51"/>
    <path id="Tracé_5" data-name="Tracé 5" class="cls-1"
          d="M158,222.25a9.77,9.77,0,0,0-9.12,6.34l-26.35,70.25a9.76,9.76,0,1,0,18.13,7.23q.08-.18.15-.39l2.78-7.45h28.84l2.79,7.45a9.75,9.75,0,0,0,18.89-3.38,9.54,9.54,0,0,0-.62-3.46l-26.34-70.27a9.75,9.75,0,0,0-9.15-6.32m-7.08,56.47,7.1-18.93,7.1,18.93Z"/>
    <path id="Tracé_6" data-name="Tracé 6" class="cls-1"
          d="M268.17,224.69a9.77,9.77,0,0,0-13.81,0l-19,19V232a9.77,9.77,0,0,0-19.53,0v70.25a9.77,9.77,0,1,0,19.53,0V290.55l18.92,18.75A9.76,9.76,0,0,0,268,295.44h0l-28.59-28.3,28.71-28.63a9.75,9.75,0,0,0,0-13.8h0"/>
    <path id="Tracé_7" data-name="Tracé 7" class="cls-1"
          d="M213.65,349a9.77,9.77,0,0,0-12.11,6.62l-11.23,38.32-11.23-38.32a9.75,9.75,0,0,0-18.73,0l-11.23,38.31-11.24-38.31a9.75,9.75,0,0,0-19,4.38,8.17,8.17,0,0,0,.32,1.1l20.6,70.26a9.76,9.76,0,0,0,18.69,0L169.71,393l11.23,38.32a9.77,9.77,0,0,0,18.74,0l20.59-70.26a9.75,9.75,0,0,0-6.62-12.1h0"/>
    <path id="Tracé_8" data-name="Tracé 8" class="cls-1"
          d="M343.36,350.13A9.75,9.75,0,0,0,329.87,353h0l-14.66,22.55L300.55,353a9.76,9.76,0,1,0-16.36,10.63l21.27,32.71v32.24a9.75,9.75,0,0,0,19.5,0V396.35l21.26-32.71a9.74,9.74,0,0,0-2.85-13.47h0"/>
    <path id="Tracé_9" data-name="Tracé 9" class="cls-1"
          d="M92.91,354.88a9.75,9.75,0,0,0-18.27,0L48.29,425.13A9.76,9.76,0,1,0,66.57,432h0l2.79-7.46H98.19L101,432a9.75,9.75,0,0,0,18.27-6.84v0ZM76.67,405l7.11-18.93L90.88,405Z"/>
    <path id="Tracé_10" data-name="Tracé 10" class="cls-1"
          d="M265,354.76a9.75,9.75,0,0,0-18.27,0L220.37,425a9.76,9.76,0,0,0,18.28,6.85l2.78-7.45h28.83l2.79,7.45a9.78,9.78,0,0,0,9.14,6.34,9.6,9.6,0,0,0,3.43-.63,9.76,9.76,0,0,0,5.7-12.56Zm-16.23,50.15,7.1-18.94,7.1,18.94Z"/>
    <path id="Tracé_11" data-name="Tracé 11" class="cls-1"
          d="M437.75,177.71a9.75,9.75,0,1,0-6.9-2.87,9.75,9.75,0,0,0,6.9,2.87"/>
    <path id="Tracé_12" data-name="Tracé 12" class="cls-1"
          d="M204.63,167.76a9.75,9.75,0,1,0-6.89,2.88,9.75,9.75,0,0,0,6.89-2.88"/>
</svg>
